<mxfile host="app.diagrams.net" modified="2021-01-02T11:14:10.495Z" agent="5.0 (X11; Linux x86_64) AppleWebKit/537.36 (KHTML, like Gecko) Chrome/87.0.4280.88 Safari/537.36" etag="JpK47HZ5qZeTSMk5xSoX" version="14.1.7" type="github">
  <diagram name="Page-1" id="c7558073-3199-34d8-9f00-42111426c3f3">
    <mxGraphModel dx="5080" dy="2332" grid="1" gridSize="10" guides="1" tooltips="1" connect="1" arrows="1" fold="1" page="1" pageScale="1" pageWidth="1169" pageHeight="827" background="#ffffff" math="0" shadow="0">
      <root>
        <mxCell id="0" />
        <mxCell id="1" parent="0" />
        <mxCell id="spsE7N1KxRnAXjpoYgU2-159" value="" style="html=1;shadow=0;dashed=0;shape=mxgraph.bootstrap.rrect;rSize=5;html=1;whiteSpace=wrap;verticalAlign=bottom;align=left;spacing=20;spacingBottom=0;fontSize=14;fillColor=#d5e8d4;strokeColor=#82b366;opacity=50;container=0;" vertex="1" parent="1">
          <mxGeometry x="-680" y="-354" width="940" height="474" as="geometry" />
        </mxCell>
        <mxCell id="spsE7N1KxRnAXjpoYgU2-177" value="" style="html=1;shadow=0;dashed=0;shape=mxgraph.bootstrap.rrect;rSize=5;strokeColor=#10739e;html=1;whiteSpace=wrap;fillColor=#b1ddf0;verticalAlign=bottom;align=left;spacing=20;spacingBottom=0;fontSize=14;opacity=50;" vertex="1" parent="1">
          <mxGeometry x="291" y="-354" width="299" height="310" as="geometry" />
        </mxCell>
        <mxCell id="spsE7N1KxRnAXjpoYgU2-178" value="System" style="html=1;shadow=0;dashed=0;shape=mxgraph.bootstrap.topButton;rSize=5;perimeter=none;whiteSpace=wrap;fillColor=#b1ddf0;strokeColor=#10739e;resizeWidth=1;fontSize=18;align=left;spacing=20;" vertex="1" parent="spsE7N1KxRnAXjpoYgU2-177">
          <mxGeometry width="299" height="50" relative="1" as="geometry" />
        </mxCell>
        <mxCell id="2" value="&lt;p style=&quot;margin: 0px; margin-top: 4px; text-align: center; text-decoration: underline;&quot;&gt;&lt;strong&gt;Process 1&lt;br /&gt;&lt;/strong&gt;&lt;/p&gt;&lt;hr /&gt;&lt;p style=&quot;margin: 0px; margin-left: 8px;&quot;&gt;System Study&lt;/p&gt;&lt;p style=&quot;margin: 0px; margin-left: 8px;&quot;&gt;Preparation&lt;/p&gt;" style="verticalAlign=middle;align=center;overflow=fill;fontSize=12;fontFamily=Helvetica;html=1;rounded=1;fontStyle=1;strokeWidth=3;fillColor=#E6FFCC" parent="1" vertex="1">
          <mxGeometry x="1141" y="176" width="110" height="90" as="geometry" />
        </mxCell>
        <mxCell id="3" value="Engineering" style="whiteSpace=wrap;align=center;verticalAlign=middle;fontStyle=1;strokeWidth=3;fillColor=#FFFFCC" parent="1" vertex="1">
          <mxGeometry x="1151" y="66" width="90" height="60" as="geometry" />
        </mxCell>
        <mxCell id="4" value="Investors" style="whiteSpace=wrap;align=center;verticalAlign=middle;fontStyle=1;strokeWidth=3;fillColor=#FFFFCC" parent="1" vertex="1">
          <mxGeometry x="945" y="191" width="90" height="60" as="geometry" />
        </mxCell>
        <mxCell id="5" value="ON-DEMAND SYSTEM DEVELOPMENT" style="shape=process;whiteSpace=wrap;align=center;verticalAlign=middle;size=0.0475;fontStyle=1;strokeWidth=3;fillColor=#FFCCCC" parent="1" vertex="1">
          <mxGeometry x="1106" y="331" width="400" height="50" as="geometry" />
        </mxCell>
        <mxCell id="6" value="&lt;p style=&quot;margin: 0px; margin-top: 4px; text-align: center; text-decoration: underline;&quot;&gt;&lt;strong&gt;Process 2&lt;br /&gt;&lt;/strong&gt;&lt;/p&gt;&lt;hr /&gt;&lt;p style=&quot;margin: 0px; margin-left: 8px;&quot;&gt;System Analysis&lt;/p&gt;" style="verticalAlign=middle;align=center;overflow=fill;fontSize=12;fontFamily=Helvetica;html=1;rounded=1;fontStyle=1;strokeWidth=3;fillColor=#E6FFCC" parent="1" vertex="1">
          <mxGeometry x="1295" y="86" width="110" height="90" as="geometry" />
        </mxCell>
        <mxCell id="7" value="&lt;p style=&quot;margin: 0px; margin-top: 4px; text-align: center; text-decoration: underline;&quot;&gt;&lt;strong&gt;&lt;strong&gt;Process&lt;/strong&gt; 3&lt;br /&gt;&lt;/strong&gt;&lt;/p&gt;&lt;hr /&gt;&lt;p style=&quot;margin: 0px; margin-left: 8px;&quot;&gt;List Possible&lt;/p&gt;&lt;p style=&quot;margin: 0px; margin-left: 8px;&quot;&gt;System Solutions&lt;/p&gt;" style="verticalAlign=middle;align=center;overflow=fill;fontSize=12;fontFamily=Helvetica;html=1;rounded=1;fontStyle=1;strokeWidth=3;fillColor=#E6FFCC" parent="1" vertex="1">
          <mxGeometry x="1586" y="311" width="110" height="90" as="geometry" />
        </mxCell>
        <mxCell id="8" value="&lt;p style=&quot;margin: 0px; margin-top: 4px; text-align: center; text-decoration: underline;&quot;&gt;&lt;strong&gt;&lt;strong&gt;Process&lt;/strong&gt; 4&lt;br /&gt;&lt;/strong&gt;&lt;/p&gt;&lt;hr /&gt;&lt;p style=&quot;margin: 0px; margin-left: 8px;&quot;&gt;Detail Chosen&lt;/p&gt;&lt;p style=&quot;margin: 0px; margin-left: 8px;&quot;&gt;Solution&lt;/p&gt;" style="verticalAlign=middle;align=center;overflow=fill;fontSize=12;fontFamily=Helvetica;html=1;rounded=1;fontStyle=1;strokeWidth=3;fillColor=#E6FFCC" parent="1" vertex="1">
          <mxGeometry x="1465" y="181" width="110" height="90" as="geometry" />
        </mxCell>
        <mxCell id="9" value="&lt;p style=&quot;margin: 0px; margin-top: 4px; text-align: center; text-decoration: underline;&quot;&gt;&lt;strong&gt;&lt;strong&gt;Process&lt;/strong&gt; 5&lt;br /&gt;&lt;/strong&gt;&lt;/p&gt;&lt;hr /&gt;&lt;p style=&quot;margin: 0px; margin-left: 8px;&quot;&gt;New System&lt;/p&gt;&lt;p style=&quot;margin: 0px; margin-left: 8px;&quot;&gt;Design&lt;/p&gt;" style="verticalAlign=middle;align=center;overflow=fill;fontSize=12;fontFamily=Helvetica;html=1;rounded=1;fontStyle=1;strokeWidth=3;fillColor=#E6FFCC" parent="1" vertex="1">
          <mxGeometry x="1445" y="450" width="110" height="90" as="geometry" />
        </mxCell>
        <mxCell id="10" value="&lt;p style=&quot;margin: 0px; margin-top: 4px; text-align: center; text-decoration: underline;&quot;&gt;&lt;strong&gt;&lt;strong&gt;Process&lt;/strong&gt; 6&lt;br /&gt;&lt;/strong&gt;&lt;/p&gt;&lt;hr /&gt;&lt;p style=&quot;margin: 0px; margin-left: 8px;&quot;&gt;New&lt;/p&gt;&lt;p style=&quot;margin: 0px; margin-left: 8px;&quot;&gt;System&lt;/p&gt;&lt;p style=&quot;margin: 0px; margin-left: 8px;&quot;&gt;Construction&lt;/p&gt;" style="verticalAlign=middle;align=center;overflow=fill;fontSize=12;fontFamily=Helvetica;html=1;rounded=1;fontStyle=1;strokeWidth=3;fillColor=#E6FFCC" parent="1" vertex="1">
          <mxGeometry x="1093.5" y="450" width="110" height="90" as="geometry" />
        </mxCell>
        <mxCell id="12" value="Management" style="whiteSpace=wrap;align=center;verticalAlign=middle;fontStyle=1;strokeWidth=3;fillColor=#FFFFCC" parent="1" vertex="1">
          <mxGeometry x="1596" y="2.1316282072803006e-14" width="90" height="60" as="geometry" />
        </mxCell>
        <mxCell id="13" value="Management" style="whiteSpace=wrap;align=center;verticalAlign=middle;fontStyle=1;strokeWidth=3;fillColor=#FFFFCC" parent="1" vertex="1">
          <mxGeometry x="1258.5" y="590" width="90" height="60" as="geometry" />
        </mxCell>
        <mxCell id="14" value="Engineering" style="whiteSpace=wrap;align=center;verticalAlign=middle;fontStyle=1;strokeWidth=3;fillColor=#FFFFCC" parent="1" vertex="1">
          <mxGeometry x="940" y="464.9999999999999" width="90" height="60" as="geometry" />
        </mxCell>
        <mxCell id="15" value="Vendors" style="whiteSpace=wrap;align=center;verticalAlign=middle;fontStyle=1;strokeWidth=3;fillColor=#FFFFCC" parent="1" vertex="1">
          <mxGeometry x="1455" y="590" width="90" height="60" as="geometry" />
        </mxCell>
        <mxCell id="36" value="" style="edgeStyle=none;noEdgeStyle=1;strokeColor=#990000;strokeWidth=2" parent="1" source="3" target="2" edge="1">
          <mxGeometry width="100" height="100" relative="1" as="geometry">
            <mxPoint x="925" y="190" as="sourcePoint" />
            <mxPoint x="1025" y="90" as="targetPoint" />
          </mxGeometry>
        </mxCell>
        <mxCell id="37" value="" style="edgeStyle=none;noEdgeStyle=1;strokeColor=#990000;strokeWidth=2" parent="1" source="4" target="2" edge="1">
          <mxGeometry width="100" height="100" relative="1" as="geometry">
            <mxPoint x="1185" y="130" as="sourcePoint" />
            <mxPoint x="1285" y="30" as="targetPoint" />
          </mxGeometry>
        </mxCell>
        <mxCell id="11" value="&lt;p style=&quot;margin: 0px; margin-top: 4px; text-align: center; text-decoration: underline;&quot;&gt;&lt;strong&gt;&lt;strong&gt;Process&lt;/strong&gt; 7&lt;br /&gt;&lt;/strong&gt;&lt;/p&gt;&lt;hr /&gt;&lt;p style=&quot;margin: 0px; margin-left: 8px;&quot;&gt;New System&lt;/p&gt;&lt;p style=&quot;margin: 0px; margin-left: 8px;&quot;&gt;Startup and&lt;/p&gt;&lt;p style=&quot;margin: 0px; margin-left: 8px;&quot;&gt;Testing&lt;/p&gt;" style="verticalAlign=middle;align=center;overflow=fill;fontSize=12;fontFamily=Helvetica;html=1;rounded=1;fontStyle=1;strokeWidth=3;fillColor=#E6FFCC" parent="1" vertex="1">
          <mxGeometry x="1248.5" y="450" width="110" height="90" as="geometry" />
        </mxCell>
        <mxCell id="51" value="" style="endArrow=none;noEdgeStyle=1;strokeColor=#990000;strokeWidth=2" parent="1" source="9" target="11" edge="1">
          <mxGeometry relative="1" as="geometry">
            <mxPoint x="1110.0081967213114" y="421" as="sourcePoint" />
            <mxPoint x="1305.327868852459" y="590" as="targetPoint" />
          </mxGeometry>
        </mxCell>
        <mxCell id="52" value="Desired &#xa;functionality" style="text;spacingTop=-5;align=center" parent="1" vertex="1">
          <mxGeometry x="1070" y="191" width="30" height="20" as="geometry" />
        </mxCell>
        <mxCell id="53" value="Desired &#xa;functionality" style="text;spacingTop=-5;align=center" parent="1" vertex="1">
          <mxGeometry x="1146" y="136" width="30" height="20" as="geometry" />
        </mxCell>
        <mxCell id="54" value="Documentation&#xa;from similar projects" style="text;spacingTop=-5;align=center" parent="1" vertex="1">
          <mxGeometry x="1091" y="281" width="30" height="20" as="geometry" />
        </mxCell>
        <mxCell id="55" value="" style="edgeStyle=elbowEdgeStyle;elbow=horizontal;strokeColor=#990000;strokeWidth=2" parent="1" source="5" target="2" edge="1">
          <mxGeometry width="100" height="100" relative="1" as="geometry">
            <mxPoint x="955" y="470" as="sourcePoint" />
            <mxPoint x="1055" y="370" as="targetPoint" />
            <Array as="points">
              <mxPoint x="1165" y="310" />
            </Array>
          </mxGeometry>
        </mxCell>
        <mxCell id="56" value="" style="edgeStyle=elbowEdgeStyle;elbow=horizontal;strokeColor=#990000;strokeWidth=2" parent="1" source="2" target="5" edge="1">
          <mxGeometry width="100" height="100" relative="1" as="geometry">
            <mxPoint x="955" y="440" as="sourcePoint" />
            <mxPoint x="1055" y="340" as="targetPoint" />
            <Array as="points">
              <mxPoint x="1185" y="300" />
            </Array>
          </mxGeometry>
        </mxCell>
        <mxCell id="57" value="Elaborate&#xa;cost/benefit&#xa;ratio" style="text;spacingTop=-5;align=center" parent="1" vertex="1">
          <mxGeometry x="1211" y="281" width="30" height="20" as="geometry" />
        </mxCell>
        <mxCell id="58" value="" style="edgeStyle=elbowEdgeStyle;elbow=horizontal;strokeColor=#990000;strokeWidth=2" parent="1" source="5" target="6" edge="1">
          <mxGeometry width="100" height="100" relative="1" as="geometry">
            <mxPoint x="1285" y="310" as="sourcePoint" />
            <mxPoint x="1385" y="210" as="targetPoint" />
            <Array as="points">
              <mxPoint x="1345" y="250" />
            </Array>
          </mxGeometry>
        </mxCell>
        <mxCell id="59" value="" style="edgeStyle=elbowEdgeStyle;elbow=horizontal;strokeColor=#990000;strokeWidth=2" parent="1" source="6" target="5" edge="1">
          <mxGeometry width="100" height="100" relative="1" as="geometry">
            <mxPoint x="1255" y="310" as="sourcePoint" />
            <mxPoint x="1355" y="210" as="targetPoint" />
            <Array as="points">
              <mxPoint x="1365" y="260" />
            </Array>
          </mxGeometry>
        </mxCell>
        <mxCell id="60" value="Existing&#xa;documentation" style="text;spacingTop=-5;align=center" parent="1" vertex="1">
          <mxGeometry x="1285" y="220.99999999999983" width="30" height="20" as="geometry" />
        </mxCell>
        <mxCell id="61" value="Necessary&#xa;resources" style="text;spacingTop=-5;align=center" parent="1" vertex="1">
          <mxGeometry x="1386.0000000000002" y="191.00000000000006" width="30" height="20" as="geometry" />
        </mxCell>
        <mxCell id="62" value="Progress&#xa;reports" style="text;spacingTop=-5;align=center" parent="1" vertex="1">
          <mxGeometry x="1450" y="40.00000000000003" width="30" height="20" as="geometry" />
        </mxCell>
        <mxCell id="63" value="Progress&#xa;reports" style="text;spacingTop=-5;align=center" parent="1" vertex="1">
          <mxGeometry x="1545" y="86.00000000000011" width="30" height="20" as="geometry" />
        </mxCell>
        <mxCell id="64" value="Progress&#xa;reports" style="text;spacingTop=-5;align=center" parent="1" vertex="1">
          <mxGeometry x="1656" y="201.0000000000001" width="30" height="20" as="geometry" />
        </mxCell>
        <mxCell id="65" value="" style="edgeStyle=elbowEdgeStyle;elbow=horizontal;strokeColor=#990000;strokeWidth=2" parent="1" source="6" target="12" edge="1">
          <mxGeometry width="100" height="100" relative="1" as="geometry">
            <mxPoint x="1165" y="120.00000000000011" as="sourcePoint" />
            <mxPoint x="1265" y="20.000000000000114" as="targetPoint" />
            <Array as="points">
              <mxPoint x="1350" y="80" />
            </Array>
          </mxGeometry>
        </mxCell>
        <mxCell id="66" value="" style="edgeStyle=elbowEdgeStyle;elbow=vertical;entryX=0.25;entryY=1;strokeColor=#990000;strokeWidth=2" parent="1" source="8" target="12" edge="1">
          <mxGeometry width="100" height="100" relative="1" as="geometry">
            <mxPoint x="1435" y="190" as="sourcePoint" />
            <mxPoint x="1535" y="90" as="targetPoint" />
          </mxGeometry>
        </mxCell>
        <mxCell id="67" value="" style="edgeStyle=elbowEdgeStyle;elbow=horizontal;strokeColor=#990000;strokeWidth=2" parent="1" source="7" target="12" edge="1">
          <mxGeometry width="100" height="100" relative="1" as="geometry">
            <mxPoint x="1565.0000000000002" y="300" as="sourcePoint" />
            <mxPoint x="1665.0000000000002" y="200" as="targetPoint" />
          </mxGeometry>
        </mxCell>
        <mxCell id="68" value="" style="edgeStyle=elbowEdgeStyle;elbow=horizontal;strokeColor=#990000;strokeWidth=2" parent="1" source="8" target="5" edge="1">
          <mxGeometry width="100" height="100" relative="1" as="geometry">
            <mxPoint x="1475" y="320" as="sourcePoint" />
            <mxPoint x="1415" y="190" as="targetPoint" />
            <Array as="points">
              <mxPoint x="1475" y="300" />
            </Array>
          </mxGeometry>
        </mxCell>
        <mxCell id="69" value="" style="edgeStyle=segmentEdgeStyle;strokeColor=#990000;strokeWidth=2" parent="1" source="5" target="8" edge="1">
          <mxGeometry width="100" height="100" relative="1" as="geometry">
            <mxPoint x="1245" y="300" as="sourcePoint" />
            <mxPoint x="1345" y="200" as="targetPoint" />
            <Array as="points">
              <mxPoint x="1425" y="226" />
            </Array>
          </mxGeometry>
        </mxCell>
        <mxCell id="70" value="Existing&#xa;Models" style="text;spacingTop=-5;align=center" parent="1" vertex="1">
          <mxGeometry x="1435.0000000000002" y="280.9999999999999" width="30" height="20" as="geometry" />
        </mxCell>
        <mxCell id="71" value="Equipment&#xa;specification" style="text;spacingTop=-5;align=center" parent="1" vertex="1">
          <mxGeometry x="1520" y="281" width="30" height="20" as="geometry" />
        </mxCell>
        <mxCell id="72" value="" style="edgeStyle=elbowEdgeStyle;elbow=vertical;strokeColor=#990000;strokeWidth=2" parent="1" source="5" target="7" edge="1">
          <mxGeometry width="100" height="100" relative="1" as="geometry">
            <mxPoint x="1405" y="440" as="sourcePoint" />
            <mxPoint x="1505" y="340" as="targetPoint" />
            <Array as="points">
              <mxPoint x="1555" y="350" />
            </Array>
          </mxGeometry>
        </mxCell>
        <mxCell id="73" value="" style="edgeStyle=elbowEdgeStyle;elbow=vertical;strokeColor=#990000;strokeWidth=2" parent="1" source="7" target="5" edge="1">
          <mxGeometry width="100" height="100" relative="1" as="geometry">
            <mxPoint x="1365" y="440" as="sourcePoint" />
            <mxPoint x="1465" y="340" as="targetPoint" />
            <Array as="points">
              <mxPoint x="1555" y="370" />
            </Array>
          </mxGeometry>
        </mxCell>
        <mxCell id="74" value="Resources" style="text;spacingTop=-5;align=center" parent="1" vertex="1">
          <mxGeometry x="1526" y="330.99999999999994" width="30" height="20" as="geometry" />
        </mxCell>
        <mxCell id="75" value="System &#xa;Advantages &#xa;and Limitations" style="text;spacingTop=-5;align=center" parent="1" vertex="1">
          <mxGeometry x="1535" y="371.0000000000001" width="30" height="20" as="geometry" />
        </mxCell>
        <mxCell id="76" value="" style="edgeStyle=elbowEdgeStyle;elbow=horizontal;strokeColor=#990000;strokeWidth=2" parent="1" source="9" target="5" edge="1">
          <mxGeometry width="100" height="100" relative="1" as="geometry">
            <mxPoint x="1325" y="520" as="sourcePoint" />
            <mxPoint x="1425" y="420" as="targetPoint" />
            <Array as="points">
              <mxPoint x="1475" y="410" />
            </Array>
          </mxGeometry>
        </mxCell>
        <mxCell id="77" value="" style="edgeStyle=elbowEdgeStyle;elbow=horizontal;strokeColor=#990000;strokeWidth=2" parent="1" source="5" target="9" edge="1">
          <mxGeometry width="100" height="100" relative="1" as="geometry">
            <mxPoint x="1305" y="530" as="sourcePoint" />
            <mxPoint x="1405" y="430" as="targetPoint" />
            <Array as="points">
              <mxPoint x="1465" y="420" />
            </Array>
          </mxGeometry>
        </mxCell>
        <mxCell id="78" value="" style="edgeStyle=elbowEdgeStyle;elbow=horizontal;strokeColor=#990000;strokeWidth=2" parent="1" source="15" target="9" edge="1">
          <mxGeometry width="100" height="100" relative="1" as="geometry">
            <mxPoint x="1335" y="640" as="sourcePoint" />
            <mxPoint x="1435" y="540" as="targetPoint" />
          </mxGeometry>
        </mxCell>
        <mxCell id="79" value="Hardware and&#xa;Software specs" style="text;spacingTop=-5;align=center" parent="1" vertex="1">
          <mxGeometry x="1530" y="550" width="30" height="20" as="geometry" />
        </mxCell>
        <mxCell id="81" value="" style="edgeStyle=elbowEdgeStyle;elbow=horizontal;exitX=0;exitY=0.75;strokeColor=#990000;strokeWidth=2" parent="1" source="9" target="13" edge="1">
          <mxGeometry width="100" height="100" relative="1" as="geometry">
            <mxPoint x="1325" y="670" as="sourcePoint" />
            <mxPoint x="1425" y="570" as="targetPoint" />
            <Array as="points">
              <mxPoint x="1375" y="570" />
            </Array>
          </mxGeometry>
        </mxCell>
        <mxCell id="82" value="Progress&#xa;Reports" style="text;spacingTop=-5;align=center" parent="1" vertex="1">
          <mxGeometry x="1386.0000000000005" y="550.0000000000001" width="30" height="20" as="geometry" />
        </mxCell>
        <mxCell id="83" value="" style="edgeStyle=elbowEdgeStyle;elbow=horizontal;strokeColor=#990000;strokeWidth=2" parent="1" source="11" target="13" edge="1">
          <mxGeometry width="100" height="100" relative="1" as="geometry">
            <mxPoint x="1105" y="600.0000000000002" as="sourcePoint" />
            <mxPoint x="1135" y="590" as="targetPoint" />
          </mxGeometry>
        </mxCell>
        <mxCell id="84" value="Progress&#xa;Reports" style="text;spacingTop=-5;align=center" parent="1" vertex="1">
          <mxGeometry x="1315.0000000000002" y="550.0000000000002" width="30" height="20" as="geometry" />
        </mxCell>
        <mxCell id="85" value="" style="edgeStyle=elbowEdgeStyle;elbow=horizontal;strokeColor=#990000;strokeWidth=2" parent="1" source="10" target="13" edge="1">
          <mxGeometry width="100" height="100" relative="1" as="geometry">
            <mxPoint x="1035" y="680" as="sourcePoint" />
            <mxPoint x="1135" y="580" as="targetPoint" />
            <Array as="points">
              <mxPoint x="1149" y="570" />
            </Array>
          </mxGeometry>
        </mxCell>
        <mxCell id="86" value="Progress&#xa;Reports" style="text;spacingTop=-5;align=center" parent="1" vertex="1">
          <mxGeometry x="1161" y="590.0000000000001" width="30" height="20" as="geometry" />
        </mxCell>
        <mxCell id="87" value="" style="edgeStyle=elbowEdgeStyle;elbow=vertical;strokeColor=#990000;strokeWidth=2" parent="1" source="10" target="14" edge="1">
          <mxGeometry width="100" height="100" relative="1" as="geometry">
            <mxPoint x="975" y="680" as="sourcePoint" />
            <mxPoint x="1075" y="580" as="targetPoint" />
          </mxGeometry>
        </mxCell>
        <mxCell id="88" value="" style="edgeStyle=elbowEdgeStyle;elbow=horizontal;strokeColor=#990000;strokeWidth=2" parent="1" source="5" target="11" edge="1">
          <mxGeometry width="100" height="100" relative="1" as="geometry">
            <mxPoint x="955" y="440" as="sourcePoint" />
            <mxPoint x="1055" y="340" as="targetPoint" />
            <Array as="points">
              <mxPoint x="1295" y="410" />
            </Array>
          </mxGeometry>
        </mxCell>
        <mxCell id="89" value="" style="edgeStyle=elbowEdgeStyle;elbow=horizontal;strokeColor=#990000;strokeWidth=2" parent="1" source="11" target="5" edge="1">
          <mxGeometry width="100" height="100" relative="1" as="geometry">
            <mxPoint x="964.9999999999999" y="450" as="sourcePoint" />
            <mxPoint x="1065" y="350" as="targetPoint" />
            <Array as="points">
              <mxPoint x="1315" y="410" />
            </Array>
          </mxGeometry>
        </mxCell>
        <mxCell id="90" value="Version&#xa;specs" style="text;spacingTop=-5;align=center" parent="1" vertex="1">
          <mxGeometry x="1166" y="401" width="30" height="20" as="geometry" />
        </mxCell>
        <mxCell id="91" value="Certificates,&#xa;system&#xa;libraries" style="text;spacingTop=-5;align=center" parent="1" vertex="1">
          <mxGeometry x="1085" y="401.0000000000002" width="30" height="20" as="geometry" />
        </mxCell>
        <mxCell id="92" value="" style="edgeStyle=elbowEdgeStyle;elbow=horizontal;strokeColor=#990000;strokeWidth=2" parent="1" source="5" target="10" edge="1">
          <mxGeometry width="100" height="100" relative="1" as="geometry">
            <mxPoint x="935.0000000000001" y="440" as="sourcePoint" />
            <mxPoint x="1035" y="340" as="targetPoint" />
            <Array as="points">
              <mxPoint x="1165" y="430" />
              <mxPoint x="1155" y="410" />
            </Array>
          </mxGeometry>
        </mxCell>
        <mxCell id="93" value="" style="edgeStyle=elbowEdgeStyle;elbow=horizontal;strokeColor=#990000;strokeWidth=2" parent="1" source="10" target="5" edge="1">
          <mxGeometry width="100" height="100" relative="1" as="geometry">
            <mxPoint x="945" y="450" as="sourcePoint" />
            <mxPoint x="1045" y="350" as="targetPoint" />
            <Array as="points">
              <mxPoint x="1135" y="410" />
            </Array>
          </mxGeometry>
        </mxCell>
        <mxCell id="94" value="System&#xa;specs" style="text;spacingTop=-5;align=center" parent="1" vertex="1">
          <mxGeometry x="1045" y="505.0000000000001" width="30" height="20" as="geometry" />
        </mxCell>
        <mxCell id="95" value="Design&#xa;specs" style="text;spacingTop=-5;align=center" parent="1" vertex="1">
          <mxGeometry x="1328.5" y="401.0000000000002" width="30" height="20" as="geometry" />
        </mxCell>
        <mxCell id="96" value="System&#xa;version" style="text;spacingTop=-5;align=center" parent="1" vertex="1">
          <mxGeometry x="1255.9999999999998" y="401" width="30" height="20" as="geometry" />
        </mxCell>
        <mxCell id="spsE7N1KxRnAXjpoYgU2-96" value="&lt;p style=&quot;margin: 4px 0px 0px; text-align: center; text-decoration: underline; font-size: 12px;&quot;&gt;&lt;strong style=&quot;font-size: 12px;&quot;&gt;AngularRate Control&lt;/strong&gt;&lt;/p&gt;&lt;hr style=&quot;font-size: 12px;&quot;&gt;&lt;p style=&quot;margin: 0px 0px 0px 8px; font-size: 12px;&quot;&gt;&lt;br style=&quot;font-size: 12px;&quot;&gt;&lt;/p&gt;" style="verticalAlign=middle;align=center;overflow=fill;fontSize=12;fontFamily=Tahoma;html=1;rounded=1;fontStyle=1;strokeWidth=3;fillColor=none;" vertex="1" parent="1">
          <mxGeometry x="38" y="-183" width="134" height="90" as="geometry" />
        </mxCell>
        <mxCell id="spsE7N1KxRnAXjpoYgU2-101" style="edgeStyle=orthogonalEdgeStyle;rounded=1;orthogonalLoop=1;jettySize=auto;html=1;exitX=1;exitY=0.5;exitDx=0;exitDy=0;exitPerimeter=0;entryX=0;entryY=0.5;entryDx=0;entryDy=0;endArrow=none;endFill=0;fontFamily=Tahoma;fontSize=12;fontStyle=1;fillColor=none;" edge="1" parent="1" source="spsE7N1KxRnAXjpoYgU2-98" target="spsE7N1KxRnAXjpoYgU2-99">
          <mxGeometry relative="1" as="geometry" />
        </mxCell>
        <mxCell id="spsE7N1KxRnAXjpoYgU2-98" value="" style="pointerEvents=1;verticalLabelPosition=bottom;shadow=0;dashed=0;align=center;html=1;verticalAlign=top;shape=mxgraph.electrical.electro-mechanical.relay_coil_2;strokeWidth=1;fontFamily=Tahoma;fontSize=12;fontStyle=1;fillColor=none;" vertex="1" parent="1">
          <mxGeometry x="46.5" y="-140.5" width="41.25" height="30" as="geometry" />
        </mxCell>
        <mxCell id="spsE7N1KxRnAXjpoYgU2-152" style="edgeStyle=none;rounded=1;orthogonalLoop=1;jettySize=auto;html=1;exitX=1;exitY=0.5;exitDx=0;exitDy=0;entryX=0;entryY=0.75;entryDx=0;entryDy=0;startArrow=none;startFill=0;endArrow=open;endFill=0;fontFamily=Tahoma;fontSize=12;fontStyle=1;fillColor=none;" edge="1" parent="1" source="spsE7N1KxRnAXjpoYgU2-99" target="spsE7N1KxRnAXjpoYgU2-157">
          <mxGeometry relative="1" as="geometry">
            <mxPoint x="201" y="-125.49999999999977" as="targetPoint" />
          </mxGeometry>
        </mxCell>
        <mxCell id="spsE7N1KxRnAXjpoYgU2-99" value="PID" style="rounded=1;whiteSpace=wrap;html=1;strokeWidth=3;fillColor=none;fontFamily=Tahoma;fontSize=12;fontStyle=1;" vertex="1" parent="1">
          <mxGeometry x="114" y="-148" width="49" height="45" as="geometry" />
        </mxCell>
        <mxCell id="spsE7N1KxRnAXjpoYgU2-109" style="edgeStyle=orthogonalEdgeStyle;rounded=1;orthogonalLoop=1;jettySize=auto;html=1;exitX=1;exitY=1;exitDx=0;exitDy=0;exitPerimeter=0;entryX=0;entryY=0.5;entryDx=0;entryDy=0;entryPerimeter=0;endArrow=none;endFill=0;fontFamily=Tahoma;fontSize=12;fontStyle=1;fillColor=none;" edge="1" parent="1" source="spsE7N1KxRnAXjpoYgU2-107" target="spsE7N1KxRnAXjpoYgU2-98">
          <mxGeometry relative="1" as="geometry" />
        </mxCell>
        <mxCell id="spsE7N1KxRnAXjpoYgU2-107" value="" style="pointerEvents=1;verticalLabelPosition=bottom;shadow=0;dashed=0;align=center;html=1;verticalAlign=top;shape=mxgraph.electrical.electro-mechanical.manual_switch;strokeWidth=1;fontFamily=Tahoma;fontSize=12;fontStyle=1;fillColor=none;" vertex="1" parent="1">
          <mxGeometry x="-14.5" y="-146" width="35" height="20.5" as="geometry" />
        </mxCell>
        <mxCell id="spsE7N1KxRnAXjpoYgU2-110" value="" style="shape=image;html=1;verticalAlign=top;verticalLabelPosition=bottom;labelBackgroundColor=#ffffff;imageAspect=0;aspect=fixed;image=https://cdn4.iconfinder.com/data/icons/wirecons-free-vector-icons/32/add-128.png;strokeWidth=1;fontSize=12;fontFamily=Tahoma;fontStyle=1;fillColor=none;" vertex="1" parent="1">
          <mxGeometry x="57" y="-129.5" width="8" height="8" as="geometry" />
        </mxCell>
        <mxCell id="spsE7N1KxRnAXjpoYgU2-201" style="edgeStyle=orthogonalEdgeStyle;rounded=1;orthogonalLoop=1;jettySize=auto;html=1;exitX=0.5;exitY=1;exitDx=0;exitDy=0;entryX=0;entryY=0.25;entryDx=0;entryDy=0;startArrow=open;startFill=0;endArrow=none;endFill=0;strokeColor=#000000;fontFamily=Tahoma;fontSize=12;" edge="1" parent="1" source="spsE7N1KxRnAXjpoYgU2-111" target="spsE7N1KxRnAXjpoYgU2-180">
          <mxGeometry relative="1" as="geometry" />
        </mxCell>
        <mxCell id="spsE7N1KxRnAXjpoYgU2-111" value="" style="shape=image;html=1;verticalAlign=top;verticalLabelPosition=bottom;labelBackgroundColor=#ffffff;imageAspect=0;aspect=fixed;image=https://cdn0.iconfinder.com/data/icons/very-basic-android-l-lollipop-icon-pack/24/minus-128.png;strokeWidth=1;fontSize=12;fontFamily=Tahoma;fontStyle=1;fillColor=none;" vertex="1" parent="1">
          <mxGeometry x="62" y="-120.5" width="10" height="10" as="geometry" />
        </mxCell>
        <mxCell id="spsE7N1KxRnAXjpoYgU2-114" value="&lt;p style=&quot;margin: 4px 0px 0px; text-align: center; text-decoration: underline; font-size: 12px;&quot;&gt;&lt;strong style=&quot;font-size: 12px;&quot;&gt;Attitude Control&lt;/strong&gt;&lt;/p&gt;&lt;hr style=&quot;font-size: 12px;&quot;&gt;&lt;p style=&quot;margin: 0px 0px 0px 8px; font-size: 12px;&quot;&gt;&lt;br style=&quot;font-size: 12px;&quot;&gt;&lt;/p&gt;" style="verticalAlign=middle;align=center;overflow=fill;fontSize=12;fontFamily=Tahoma;html=1;rounded=1;fontStyle=1;strokeWidth=3;fillColor=none;" vertex="1" parent="1">
          <mxGeometry x="-159" y="-182.75" width="134" height="90" as="geometry" />
        </mxCell>
        <mxCell id="spsE7N1KxRnAXjpoYgU2-115" style="edgeStyle=orthogonalEdgeStyle;rounded=1;orthogonalLoop=1;jettySize=auto;html=1;exitX=1;exitY=0.5;exitDx=0;exitDy=0;exitPerimeter=0;entryX=0;entryY=0.5;entryDx=0;entryDy=0;endArrow=none;endFill=0;fontFamily=Tahoma;fontSize=12;fontStyle=1;fillColor=none;" edge="1" parent="1" source="spsE7N1KxRnAXjpoYgU2-116" target="spsE7N1KxRnAXjpoYgU2-117">
          <mxGeometry relative="1" as="geometry" />
        </mxCell>
        <mxCell id="spsE7N1KxRnAXjpoYgU2-116" value="" style="pointerEvents=1;verticalLabelPosition=bottom;shadow=0;dashed=0;align=center;html=1;verticalAlign=top;shape=mxgraph.electrical.electro-mechanical.relay_coil_2;strokeWidth=1;fontFamily=Tahoma;fontSize=12;fontStyle=1;fillColor=none;" vertex="1" parent="1">
          <mxGeometry x="-150.5" y="-140.25" width="41.25" height="30" as="geometry" />
        </mxCell>
        <mxCell id="spsE7N1KxRnAXjpoYgU2-117" value="P" style="rounded=1;whiteSpace=wrap;html=1;strokeWidth=3;fillColor=none;fontFamily=Tahoma;fontSize=12;fontStyle=1;" vertex="1" parent="1">
          <mxGeometry x="-83" y="-147.75" width="49" height="45" as="geometry" />
        </mxCell>
        <mxCell id="spsE7N1KxRnAXjpoYgU2-118" style="rounded=1;orthogonalLoop=1;jettySize=auto;html=1;exitX=1;exitY=0.75;exitDx=0;exitDy=0;entryX=0;entryY=1;entryDx=0;entryDy=0;entryPerimeter=0;endArrow=none;endFill=0;fontFamily=Tahoma;fontSize=12;fontStyle=1;fillColor=none;" edge="1" parent="1" target="spsE7N1KxRnAXjpoYgU2-120" source="spsE7N1KxRnAXjpoYgU2-147">
          <mxGeometry relative="1" as="geometry">
            <mxPoint x="-249" y="-79.25" as="sourcePoint" />
          </mxGeometry>
        </mxCell>
        <mxCell id="spsE7N1KxRnAXjpoYgU2-119" style="edgeStyle=orthogonalEdgeStyle;rounded=1;orthogonalLoop=1;jettySize=auto;html=1;exitX=1;exitY=1;exitDx=0;exitDy=0;exitPerimeter=0;entryX=0;entryY=0.5;entryDx=0;entryDy=0;entryPerimeter=0;endArrow=none;endFill=0;fontFamily=Tahoma;fontSize=12;fontStyle=1;fillColor=none;" edge="1" parent="1" target="spsE7N1KxRnAXjpoYgU2-116">
          <mxGeometry relative="1" as="geometry">
            <mxPoint x="-178.5" y="-125.25" as="sourcePoint" />
          </mxGeometry>
        </mxCell>
        <mxCell id="spsE7N1KxRnAXjpoYgU2-120" value="" style="pointerEvents=1;verticalLabelPosition=bottom;shadow=0;dashed=0;align=center;html=1;verticalAlign=top;shape=mxgraph.electrical.electro-mechanical.manual_switch;strokeWidth=1;fontFamily=Tahoma;fontSize=12;fontStyle=1;fillColor=none;" vertex="1" parent="1">
          <mxGeometry x="-211.5" y="-145.75" width="35" height="20.5" as="geometry" />
        </mxCell>
        <mxCell id="spsE7N1KxRnAXjpoYgU2-121" value="" style="shape=image;html=1;verticalAlign=top;verticalLabelPosition=bottom;labelBackgroundColor=#ffffff;imageAspect=0;aspect=fixed;image=https://cdn4.iconfinder.com/data/icons/wirecons-free-vector-icons/32/add-128.png;strokeWidth=1;fontSize=12;fontFamily=Tahoma;fontStyle=1;fillColor=none;" vertex="1" parent="1">
          <mxGeometry x="-140" y="-129.25" width="8" height="8" as="geometry" />
        </mxCell>
        <mxCell id="spsE7N1KxRnAXjpoYgU2-202" style="edgeStyle=orthogonalEdgeStyle;rounded=1;orthogonalLoop=1;jettySize=auto;html=1;exitX=0.75;exitY=1;exitDx=0;exitDy=0;entryX=0;entryY=0.5;entryDx=0;entryDy=0;startArrow=open;startFill=0;endArrow=none;endFill=0;strokeColor=#000000;fontFamily=Tahoma;fontSize=12;" edge="1" parent="1" source="spsE7N1KxRnAXjpoYgU2-122" target="spsE7N1KxRnAXjpoYgU2-180">
          <mxGeometry relative="1" as="geometry" />
        </mxCell>
        <mxCell id="spsE7N1KxRnAXjpoYgU2-122" value="" style="shape=image;html=1;verticalAlign=top;verticalLabelPosition=bottom;labelBackgroundColor=#ffffff;imageAspect=0;aspect=fixed;image=https://cdn0.iconfinder.com/data/icons/very-basic-android-l-lollipop-icon-pack/24/minus-128.png;strokeWidth=1;fontSize=12;fontFamily=Tahoma;fontStyle=1;fillColor=none;" vertex="1" parent="1">
          <mxGeometry x="-135" y="-120.25" width="10" height="10" as="geometry" />
        </mxCell>
        <mxCell id="spsE7N1KxRnAXjpoYgU2-108" style="rounded=1;orthogonalLoop=1;jettySize=auto;html=1;exitX=1;exitY=0.5;exitDx=0;exitDy=0;entryX=0;entryY=1;entryDx=0;entryDy=0;entryPerimeter=0;endArrow=none;endFill=0;fontFamily=Tahoma;fontSize=12;fontStyle=1;fillColor=none;" edge="1" parent="1" source="spsE7N1KxRnAXjpoYgU2-117" target="spsE7N1KxRnAXjpoYgU2-107">
          <mxGeometry relative="1" as="geometry">
            <mxPoint x="-52" y="-125.5" as="sourcePoint" />
          </mxGeometry>
        </mxCell>
        <mxCell id="spsE7N1KxRnAXjpoYgU2-128" value="&lt;p style=&quot;margin: 4px 0px 0px; text-align: center; text-decoration: underline; font-size: 12px;&quot;&gt;&lt;strong style=&quot;font-size: 12px;&quot;&gt;Velocity Controller&lt;/strong&gt;&lt;/p&gt;&lt;hr style=&quot;font-size: 12px;&quot;&gt;&lt;p style=&quot;margin: 0px 0px 0px 8px; font-size: 12px;&quot;&gt;&lt;br style=&quot;font-size: 12px;&quot;&gt;&lt;/p&gt;" style="verticalAlign=middle;align=center;overflow=fill;fontSize=12;fontFamily=Tahoma;html=1;rounded=1;fontStyle=1;strokeWidth=3;fillColor=none;" vertex="1" parent="1">
          <mxGeometry x="-474" y="-278" width="134" height="90" as="geometry" />
        </mxCell>
        <mxCell id="spsE7N1KxRnAXjpoYgU2-129" style="edgeStyle=orthogonalEdgeStyle;rounded=1;orthogonalLoop=1;jettySize=auto;html=1;exitX=1;exitY=0.5;exitDx=0;exitDy=0;exitPerimeter=0;entryX=0;entryY=0.5;entryDx=0;entryDy=0;endArrow=none;endFill=0;fontFamily=Tahoma;fontSize=12;fontStyle=1;fillColor=none;" edge="1" parent="1" source="spsE7N1KxRnAXjpoYgU2-130" target="spsE7N1KxRnAXjpoYgU2-131">
          <mxGeometry relative="1" as="geometry" />
        </mxCell>
        <mxCell id="spsE7N1KxRnAXjpoYgU2-130" value="" style="pointerEvents=1;verticalLabelPosition=bottom;shadow=0;dashed=0;align=center;html=1;verticalAlign=top;shape=mxgraph.electrical.electro-mechanical.relay_coil_2;strokeWidth=1;fontFamily=Tahoma;fontSize=12;fontStyle=1;fillColor=none;" vertex="1" parent="1">
          <mxGeometry x="-465.5" y="-235.5" width="41.25" height="30" as="geometry" />
        </mxCell>
        <mxCell id="spsE7N1KxRnAXjpoYgU2-146" style="edgeStyle=none;rounded=1;orthogonalLoop=1;jettySize=auto;html=1;exitX=1;exitY=0.5;exitDx=0;exitDy=0;entryX=0;entryY=0.5;entryDx=0;entryDy=0;entryPerimeter=0;startArrow=none;startFill=0;endArrow=none;endFill=0;fontFamily=Tahoma;fontSize=12;fontStyle=1;fillColor=none;" edge="1" parent="1" source="spsE7N1KxRnAXjpoYgU2-131" target="spsE7N1KxRnAXjpoYgU2-143">
          <mxGeometry relative="1" as="geometry" />
        </mxCell>
        <mxCell id="spsE7N1KxRnAXjpoYgU2-131" value="PID" style="rounded=1;whiteSpace=wrap;html=1;strokeWidth=3;fillColor=none;fontFamily=Tahoma;fontSize=12;fontStyle=1;" vertex="1" parent="1">
          <mxGeometry x="-398" y="-243" width="49" height="45" as="geometry" />
        </mxCell>
        <mxCell id="spsE7N1KxRnAXjpoYgU2-132" value="" style="shape=image;html=1;verticalAlign=top;verticalLabelPosition=bottom;labelBackgroundColor=#ffffff;imageAspect=0;aspect=fixed;image=https://cdn4.iconfinder.com/data/icons/wirecons-free-vector-icons/32/add-128.png;strokeWidth=1;fontSize=12;fontFamily=Tahoma;fontStyle=1;fillColor=none;" vertex="1" parent="1">
          <mxGeometry x="-455" y="-224.5" width="8" height="8" as="geometry" />
        </mxCell>
        <mxCell id="spsE7N1KxRnAXjpoYgU2-203" style="edgeStyle=orthogonalEdgeStyle;rounded=1;orthogonalLoop=1;jettySize=auto;html=1;exitX=0.5;exitY=1;exitDx=0;exitDy=0;entryX=0;entryY=0.75;entryDx=0;entryDy=0;startArrow=open;startFill=0;endArrow=none;endFill=0;strokeColor=#000000;fontFamily=Tahoma;fontSize=12;" edge="1" parent="1" source="spsE7N1KxRnAXjpoYgU2-133" target="spsE7N1KxRnAXjpoYgU2-180">
          <mxGeometry relative="1" as="geometry" />
        </mxCell>
        <mxCell id="spsE7N1KxRnAXjpoYgU2-133" value="" style="shape=image;html=1;verticalAlign=top;verticalLabelPosition=bottom;labelBackgroundColor=#ffffff;imageAspect=0;aspect=fixed;image=https://cdn0.iconfinder.com/data/icons/very-basic-android-l-lollipop-icon-pack/24/minus-128.png;strokeWidth=1;fontSize=12;fontFamily=Tahoma;fontStyle=1;fillColor=none;" vertex="1" parent="1">
          <mxGeometry x="-450" y="-215.5" width="10" height="10" as="geometry" />
        </mxCell>
        <mxCell id="spsE7N1KxRnAXjpoYgU2-134" value="&lt;p style=&quot;margin: 4px 0px 0px; text-align: center; text-decoration: underline; font-size: 12px;&quot;&gt;&lt;strong style=&quot;font-size: 12px;&quot;&gt;Position Control&lt;/strong&gt;&lt;/p&gt;&lt;hr style=&quot;font-size: 12px;&quot;&gt;&lt;p style=&quot;margin: 0px 0px 0px 8px; font-size: 12px;&quot;&gt;&lt;br style=&quot;font-size: 12px;&quot;&gt;&lt;/p&gt;" style="verticalAlign=middle;align=center;overflow=fill;fontSize=12;fontFamily=Tahoma;html=1;rounded=1;fontStyle=1;strokeWidth=3;fillColor=none;" vertex="1" parent="1">
          <mxGeometry x="-666" y="-278" width="134" height="90" as="geometry" />
        </mxCell>
        <mxCell id="spsE7N1KxRnAXjpoYgU2-135" style="edgeStyle=orthogonalEdgeStyle;rounded=1;orthogonalLoop=1;jettySize=auto;html=1;exitX=1;exitY=0.5;exitDx=0;exitDy=0;exitPerimeter=0;entryX=0;entryY=0.5;entryDx=0;entryDy=0;endArrow=none;endFill=0;fontFamily=Tahoma;fontSize=12;fontStyle=1;fillColor=none;" edge="1" parent="1" source="spsE7N1KxRnAXjpoYgU2-136" target="spsE7N1KxRnAXjpoYgU2-137">
          <mxGeometry relative="1" as="geometry" />
        </mxCell>
        <mxCell id="spsE7N1KxRnAXjpoYgU2-136" value="" style="pointerEvents=1;verticalLabelPosition=bottom;shadow=0;dashed=0;align=center;html=1;verticalAlign=top;shape=mxgraph.electrical.electro-mechanical.relay_coil_2;strokeWidth=1;fontFamily=Tahoma;fontSize=12;fontStyle=1;fillColor=none;" vertex="1" parent="1">
          <mxGeometry x="-657.5" y="-235.5" width="41.25" height="30" as="geometry" />
        </mxCell>
        <mxCell id="spsE7N1KxRnAXjpoYgU2-168" style="edgeStyle=none;rounded=1;orthogonalLoop=1;jettySize=auto;html=1;exitX=1;exitY=0.5;exitDx=0;exitDy=0;entryX=0;entryY=1;entryDx=0;entryDy=0;entryPerimeter=0;startArrow=none;startFill=0;endArrow=none;endFill=0;strokeColor=#000000;fontFamily=Tahoma;fontSize=12;" edge="1" parent="1" source="spsE7N1KxRnAXjpoYgU2-137" target="spsE7N1KxRnAXjpoYgU2-167">
          <mxGeometry relative="1" as="geometry">
            <mxPoint x="-529" y="-220.5" as="targetPoint" />
          </mxGeometry>
        </mxCell>
        <mxCell id="spsE7N1KxRnAXjpoYgU2-137" value="P" style="rounded=1;whiteSpace=wrap;html=1;strokeWidth=3;fillColor=none;fontFamily=Tahoma;fontSize=12;fontStyle=1;" vertex="1" parent="1">
          <mxGeometry x="-590" y="-243" width="49" height="45" as="geometry" />
        </mxCell>
        <mxCell id="spsE7N1KxRnAXjpoYgU2-138" value="" style="shape=image;html=1;verticalAlign=top;verticalLabelPosition=bottom;labelBackgroundColor=#ffffff;imageAspect=0;aspect=fixed;image=https://cdn4.iconfinder.com/data/icons/wirecons-free-vector-icons/32/add-128.png;strokeWidth=1;fontSize=12;fontFamily=Tahoma;fontStyle=1;fillColor=none;" vertex="1" parent="1">
          <mxGeometry x="-647" y="-224.5" width="8" height="8" as="geometry" />
        </mxCell>
        <mxCell id="spsE7N1KxRnAXjpoYgU2-204" style="edgeStyle=orthogonalEdgeStyle;rounded=1;orthogonalLoop=1;jettySize=auto;html=1;exitX=0.5;exitY=1;exitDx=0;exitDy=0;entryX=0.008;entryY=0.936;entryDx=0;entryDy=0;entryPerimeter=0;startArrow=open;startFill=0;endArrow=none;endFill=0;strokeColor=#000000;fontFamily=Tahoma;fontSize=12;" edge="1" parent="1" source="spsE7N1KxRnAXjpoYgU2-139" target="spsE7N1KxRnAXjpoYgU2-180">
          <mxGeometry relative="1" as="geometry" />
        </mxCell>
        <mxCell id="spsE7N1KxRnAXjpoYgU2-139" value="" style="shape=image;html=1;verticalAlign=top;verticalLabelPosition=bottom;labelBackgroundColor=#ffffff;imageAspect=0;aspect=fixed;image=https://cdn0.iconfinder.com/data/icons/very-basic-android-l-lollipop-icon-pack/24/minus-128.png;strokeWidth=1;fontSize=12;fontFamily=Tahoma;fontStyle=1;fillColor=none;" vertex="1" parent="1">
          <mxGeometry x="-642" y="-215.5" width="10" height="10" as="geometry" />
        </mxCell>
        <mxCell id="spsE7N1KxRnAXjpoYgU2-149" style="edgeStyle=none;rounded=1;orthogonalLoop=1;jettySize=auto;html=1;exitX=1;exitY=0.5;exitDx=0;exitDy=0;exitPerimeter=0;entryX=0;entryY=0.25;entryDx=0;entryDy=0;startArrow=none;startFill=0;endArrow=open;endFill=0;fontFamily=Tahoma;fontSize=12;fontStyle=1;fillColor=none;" edge="1" parent="1" source="spsE7N1KxRnAXjpoYgU2-143" target="spsE7N1KxRnAXjpoYgU2-147">
          <mxGeometry relative="1" as="geometry" />
        </mxCell>
        <mxCell id="spsE7N1KxRnAXjpoYgU2-143" value="" style="pointerEvents=1;verticalLabelPosition=bottom;shadow=0;dashed=0;align=center;html=1;verticalAlign=top;shape=mxgraph.electrical.electro-mechanical.relay_coil_2;strokeWidth=1;fontFamily=Tahoma;fontSize=12;fontStyle=1;fillColor=none;" vertex="1" parent="1">
          <mxGeometry x="-323.12" y="-235.5" width="41.25" height="30" as="geometry" />
        </mxCell>
        <mxCell id="spsE7N1KxRnAXjpoYgU2-144" value="" style="shape=image;html=1;verticalAlign=top;verticalLabelPosition=bottom;labelBackgroundColor=#ffffff;imageAspect=0;aspect=fixed;image=https://cdn4.iconfinder.com/data/icons/wirecons-free-vector-icons/32/add-128.png;strokeWidth=1;fontSize=12;fontFamily=Tahoma;fontStyle=1;fillColor=none;" vertex="1" parent="1">
          <mxGeometry x="-312.62" y="-224.5" width="8" height="8" as="geometry" />
        </mxCell>
        <mxCell id="spsE7N1KxRnAXjpoYgU2-147" value="" style="verticalAlign=middle;align=center;overflow=fill;fontSize=12;fontFamily=Tahoma;html=1;rounded=1;fontStyle=1;strokeWidth=3;fillColor=none;" vertex="1" parent="1">
          <mxGeometry x="-265" y="-268" width="40" height="190" as="geometry" />
        </mxCell>
        <mxCell id="spsE7N1KxRnAXjpoYgU2-148" style="edgeStyle=none;rounded=1;orthogonalLoop=1;jettySize=auto;html=1;exitX=0.75;exitY=0;exitDx=0;exitDy=0;startArrow=none;startFill=0;endArrow=none;endFill=0;fontFamily=Tahoma;fontSize=12;fontStyle=1;fillColor=none;" edge="1" parent="1" source="spsE7N1KxRnAXjpoYgU2-147" target="spsE7N1KxRnAXjpoYgU2-147">
          <mxGeometry relative="1" as="geometry" />
        </mxCell>
        <mxCell id="spsE7N1KxRnAXjpoYgU2-209" style="rounded=1;orthogonalLoop=1;jettySize=auto;html=1;exitX=0.931;exitY=0.988;exitDx=0;exitDy=0;entryX=0;entryY=1;entryDx=0;entryDy=0;entryPerimeter=0;startArrow=none;startFill=0;endArrow=none;endFill=0;strokeColor=#000000;fontFamily=Tahoma;fontSize=12;exitPerimeter=0;" edge="1" parent="1" source="spsE7N1KxRnAXjpoYgU2-156" target="spsE7N1KxRnAXjpoYgU2-207">
          <mxGeometry relative="1" as="geometry" />
        </mxCell>
        <mxCell id="spsE7N1KxRnAXjpoYgU2-156" value="Attitude &amp;amp; thrust setpoint generator" style="text;html=1;fillColor=none;align=center;verticalAlign=middle;whiteSpace=wrap;rounded=0;fontFamily=Tahoma;fontSize=12;rotation=-90;fontStyle=1;" vertex="1" parent="1">
          <mxGeometry x="-298.49" y="-198" width="105" height="44.5" as="geometry" />
        </mxCell>
        <mxCell id="spsE7N1KxRnAXjpoYgU2-169" style="edgeStyle=none;rounded=1;orthogonalLoop=1;jettySize=auto;html=1;exitX=1;exitY=1;exitDx=0;exitDy=0;exitPerimeter=0;entryX=0;entryY=0.5;entryDx=0;entryDy=0;entryPerimeter=0;startArrow=none;startFill=0;endArrow=none;endFill=0;strokeColor=#000000;fontFamily=Tahoma;fontSize=12;" edge="1" parent="1" source="spsE7N1KxRnAXjpoYgU2-167" target="spsE7N1KxRnAXjpoYgU2-130">
          <mxGeometry relative="1" as="geometry" />
        </mxCell>
        <mxCell id="spsE7N1KxRnAXjpoYgU2-179" value="" style="group" vertex="1" connectable="0" parent="1">
          <mxGeometry x="194" y="-268" width="70" height="190" as="geometry" />
        </mxCell>
        <mxCell id="spsE7N1KxRnAXjpoYgU2-158" value="Control Allocation&lt;br&gt;Mixer" style="text;html=1;fillColor=none;align=center;verticalAlign=middle;whiteSpace=wrap;rounded=0;fontFamily=Tahoma;fontSize=12;rotation=-90;fontStyle=1;" vertex="1" parent="spsE7N1KxRnAXjpoYgU2-179">
          <mxGeometry x="-17.5" y="57.5" width="105" height="70" as="geometry" />
        </mxCell>
        <mxCell id="spsE7N1KxRnAXjpoYgU2-157" value="" style="verticalAlign=middle;align=center;overflow=fill;fontSize=12;fontFamily=Tahoma;html=1;rounded=1;fontStyle=1;strokeWidth=3;fillColor=none;" vertex="1" parent="spsE7N1KxRnAXjpoYgU2-179">
          <mxGeometry x="13" width="39" height="190" as="geometry" />
        </mxCell>
        <mxCell id="spsE7N1KxRnAXjpoYgU2-180" value="&lt;br&gt;&lt;br&gt;&lt;br&gt;Estimator" style="verticalAlign=middle;align=center;overflow=fill;fontSize=12;fontFamily=Tahoma;html=1;rounded=1;fontStyle=1;strokeWidth=3;fillColor=none;" vertex="1" parent="1">
          <mxGeometry x="150.5" y="3" width="95" height="94" as="geometry" />
        </mxCell>
        <mxCell id="spsE7N1KxRnAXjpoYgU2-182" style="edgeStyle=none;rounded=1;orthogonalLoop=1;jettySize=auto;html=1;exitX=1;exitY=0.25;exitDx=0;exitDy=0;entryX=0;entryY=0.5;entryDx=0;entryDy=0;startArrow=none;startFill=0;endArrow=open;endFill=0;strokeColor=#000000;fontFamily=Tahoma;fontSize=12;" edge="1" parent="1" source="spsE7N1KxRnAXjpoYgU2-157" target="spsE7N1KxRnAXjpoYgU2-162">
          <mxGeometry relative="1" as="geometry" />
        </mxCell>
        <mxCell id="spsE7N1KxRnAXjpoYgU2-183" style="edgeStyle=orthogonalEdgeStyle;rounded=1;orthogonalLoop=1;jettySize=auto;html=1;exitX=0.5;exitY=1;exitDx=0;exitDy=0;entryX=1;entryY=0.5;entryDx=0;entryDy=0;startArrow=none;startFill=0;endArrow=open;endFill=0;strokeColor=#000000;fontFamily=Tahoma;fontSize=12;" edge="1" parent="1" source="spsE7N1KxRnAXjpoYgU2-165" target="spsE7N1KxRnAXjpoYgU2-180">
          <mxGeometry relative="1" as="geometry" />
        </mxCell>
        <mxCell id="spsE7N1KxRnAXjpoYgU2-162" value="&lt;br&gt;&lt;br&gt;&lt;br&gt;Actuators" style="verticalAlign=middle;align=center;overflow=fill;fontSize=12;fontFamily=Tahoma;html=1;rounded=1;fontStyle=1;strokeWidth=3;fillColor=none;" vertex="1" parent="1">
          <mxGeometry x="321" y="-268" width="95" height="94" as="geometry" />
        </mxCell>
        <mxCell id="spsE7N1KxRnAXjpoYgU2-163" value="&lt;br&gt;&lt;br&gt;&lt;br&gt;&lt;br&gt;&lt;br&gt;&lt;br&gt;Dynamics&lt;br&gt;(Real or Simulation)" style="verticalAlign=middle;align=center;overflow=fill;fontSize=12;fontFamily=Tahoma;html=1;rounded=1;fontStyle=1;strokeWidth=3;strokeColor=#b85450;fillColor=#f8cecc;opacity=50;" vertex="1" parent="1">
          <mxGeometry x="446" y="-272" width="120" height="200" as="geometry" />
        </mxCell>
        <mxCell id="spsE7N1KxRnAXjpoYgU2-164" style="edgeStyle=none;rounded=1;orthogonalLoop=1;jettySize=auto;html=1;entryX=0;entryY=0.25;entryDx=0;entryDy=0;startArrow=none;startFill=0;endArrow=open;endFill=0;strokeColor=#000000;fontFamily=Tahoma;fontSize=12;" edge="1" parent="1" source="spsE7N1KxRnAXjpoYgU2-162" target="spsE7N1KxRnAXjpoYgU2-163">
          <mxGeometry x="321" y="-268" as="geometry" />
        </mxCell>
        <mxCell id="spsE7N1KxRnAXjpoYgU2-166" style="edgeStyle=none;rounded=1;orthogonalLoop=1;jettySize=auto;html=1;exitX=1;exitY=0.5;exitDx=0;exitDy=0;entryX=0;entryY=0.75;entryDx=0;entryDy=0;startArrow=open;startFill=0;endArrow=none;endFill=0;strokeColor=#000000;fontFamily=Tahoma;fontSize=12;" edge="1" parent="1" source="spsE7N1KxRnAXjpoYgU2-165" target="spsE7N1KxRnAXjpoYgU2-163">
          <mxGeometry x="321" y="-268" as="geometry" />
        </mxCell>
        <mxCell id="spsE7N1KxRnAXjpoYgU2-165" value="&lt;br&gt;&lt;br&gt;&lt;br&gt;Sensors" style="verticalAlign=middle;align=center;overflow=fill;fontSize=12;fontFamily=Tahoma;html=1;rounded=1;fontStyle=1;strokeWidth=3;fillColor=none;" vertex="1" parent="1">
          <mxGeometry x="321" y="-169" width="95" height="94" as="geometry" />
        </mxCell>
        <mxCell id="spsE7N1KxRnAXjpoYgU2-217" style="edgeStyle=elbowEdgeStyle;rounded=1;orthogonalLoop=1;jettySize=auto;html=1;exitX=0;exitY=0.5;exitDx=0;exitDy=0;entryX=0;entryY=0.75;entryDx=0;entryDy=0;startArrow=none;startFill=0;endArrow=open;endFill=0;strokeColor=#000000;fontFamily=Tahoma;fontSize=12;" edge="1" parent="1" source="spsE7N1KxRnAXjpoYgU2-184" target="spsE7N1KxRnAXjpoYgU2-134">
          <mxGeometry relative="1" as="geometry">
            <Array as="points">
              <mxPoint x="-760" y="-20" />
            </Array>
          </mxGeometry>
        </mxCell>
        <mxCell id="spsE7N1KxRnAXjpoYgU2-221" style="edgeStyle=orthogonalEdgeStyle;rounded=1;orthogonalLoop=1;jettySize=auto;html=1;exitX=1;exitY=0.25;exitDx=0;exitDy=0;entryX=0;entryY=0.25;entryDx=0;entryDy=0;startArrow=none;startFill=0;endArrow=open;endFill=0;strokeColor=#000000;fontFamily=Tahoma;fontSize=12;" edge="1" parent="1" source="spsE7N1KxRnAXjpoYgU2-184" target="spsE7N1KxRnAXjpoYgU2-211">
          <mxGeometry relative="1" as="geometry" />
        </mxCell>
        <mxCell id="spsE7N1KxRnAXjpoYgU2-184" value="Robot Operating System (ROS)" style="shape=process;whiteSpace=wrap;align=center;verticalAlign=middle;size=0.0475;fontStyle=1;strokeWidth=3;fillColor=#ffe6cc;strokeColor=#d79b00;" vertex="1" parent="1">
          <mxGeometry x="-670" y="158" width="550" height="70" as="geometry" />
        </mxCell>
        <mxCell id="spsE7N1KxRnAXjpoYgU2-186" value="&lt;b&gt;T&lt;/b&gt;&lt;sub&gt;sp&lt;/sub&gt;" style="text;html=1;strokeColor=none;fillColor=none;align=center;verticalAlign=middle;whiteSpace=wrap;rounded=0;fontFamily=Tahoma;fontSize=12;opacity=50;" vertex="1" parent="1">
          <mxGeometry x="258.5" y="-218" width="40" height="20" as="geometry" />
        </mxCell>
        <mxCell id="spsE7N1KxRnAXjpoYgU2-206" value="" style="shape=image;html=1;verticalAlign=top;verticalLabelPosition=bottom;labelBackgroundColor=#ffffff;imageAspect=0;aspect=fixed;image=https://cdn4.iconfinder.com/data/icons/wirecons-free-vector-icons/32/add-128.png;strokeWidth=1;fontSize=12;fontFamily=Tahoma;fontStyle=1;fillColor=none;" vertex="1" parent="1">
          <mxGeometry x="-306.49" y="-232.5" width="8" height="8" as="geometry" />
        </mxCell>
        <mxCell id="spsE7N1KxRnAXjpoYgU2-210" style="edgeStyle=none;rounded=1;orthogonalLoop=1;jettySize=auto;html=1;exitX=1;exitY=1;exitDx=0;exitDy=0;exitPerimeter=0;entryX=0;entryY=0.25;entryDx=0;entryDy=0;startArrow=none;startFill=0;endArrow=none;endFill=0;strokeColor=#000000;fontFamily=Tahoma;fontSize=12;" edge="1" parent="1" source="spsE7N1KxRnAXjpoYgU2-207" target="spsE7N1KxRnAXjpoYgU2-157">
          <mxGeometry relative="1" as="geometry" />
        </mxCell>
        <mxCell id="spsE7N1KxRnAXjpoYgU2-222" style="edgeStyle=orthogonalEdgeStyle;rounded=1;orthogonalLoop=1;jettySize=auto;html=1;exitX=0;exitY=0.75;exitDx=0;exitDy=0;entryX=1;entryY=0.75;entryDx=0;entryDy=0;startArrow=none;startFill=0;endArrow=open;endFill=0;strokeColor=#000000;fontFamily=Tahoma;fontSize=12;" edge="1" parent="1" source="spsE7N1KxRnAXjpoYgU2-211" target="spsE7N1KxRnAXjpoYgU2-184">
          <mxGeometry relative="1" as="geometry" />
        </mxCell>
        <mxCell id="spsE7N1KxRnAXjpoYgU2-211" value="Nvidia Isaac SDK" style="shape=process;whiteSpace=wrap;align=center;verticalAlign=middle;size=0.0475;fontStyle=1;strokeWidth=3;fillColor=#d5e8d4;strokeColor=#82b366;" vertex="1" parent="1">
          <mxGeometry x="50" y="158" width="550" height="70" as="geometry" />
        </mxCell>
        <mxCell id="spsE7N1KxRnAXjpoYgU2-215" value="&lt;b&gt;&lt;span style=&quot;font-size: 12px&quot;&gt;P&lt;/span&gt;&lt;/b&gt;&lt;sub&gt;sp&lt;/sub&gt;" style="text;html=1;strokeColor=none;fillColor=none;align=center;verticalAlign=middle;whiteSpace=wrap;rounded=0;fontFamily=Tahoma;fontSize=12;opacity=50;" vertex="1" parent="1">
          <mxGeometry x="-730" y="-230.5" width="40" height="20" as="geometry" />
        </mxCell>
        <mxCell id="spsE7N1KxRnAXjpoYgU2-219" style="edgeStyle=orthogonalEdgeStyle;rounded=1;orthogonalLoop=1;jettySize=auto;html=1;exitX=1;exitY=0.75;exitDx=0;exitDy=0;startArrow=none;startFill=0;endArrow=open;endFill=0;strokeColor=#000000;fontFamily=Tahoma;fontSize=12;" edge="1" parent="1" source="spsE7N1KxRnAXjpoYgU2-218" target="spsE7N1KxRnAXjpoYgU2-134">
          <mxGeometry relative="1" as="geometry" />
        </mxCell>
        <mxCell id="spsE7N1KxRnAXjpoYgU2-220" style="edgeStyle=orthogonalEdgeStyle;rounded=1;orthogonalLoop=1;jettySize=auto;html=1;exitX=0.999;exitY=0.283;exitDx=0;exitDy=0;entryX=0.25;entryY=0;entryDx=0;entryDy=0;startArrow=none;startFill=0;endArrow=open;endFill=0;strokeColor=#000000;fontFamily=Tahoma;fontSize=12;exitPerimeter=0;" edge="1" parent="1" source="spsE7N1KxRnAXjpoYgU2-218" target="spsE7N1KxRnAXjpoYgU2-206">
          <mxGeometry relative="1" as="geometry">
            <Array as="points">
              <mxPoint x="-865" y="-294" />
              <mxPoint x="-305" y="-294" />
            </Array>
          </mxGeometry>
        </mxCell>
        <mxCell id="spsE7N1KxRnAXjpoYgU2-218" value="&lt;br&gt;&lt;br&gt;&lt;br&gt;&lt;br&gt;Manual Command" style="verticalAlign=middle;align=center;overflow=fill;fontSize=12;fontFamily=Tahoma;html=1;rounded=1;fontStyle=1;strokeWidth=3;fillColor=none;" vertex="1" parent="1">
          <mxGeometry x="-1010" y="-331" width="140" height="129.5" as="geometry" />
        </mxCell>
        <mxCell id="spsE7N1KxRnAXjpoYgU2-160" value="Filght Controller" style="html=1;shadow=0;dashed=0;shape=mxgraph.bootstrap.topButton;rSize=5;perimeter=none;whiteSpace=wrap;fillColor=#d5e8d4;strokeColor=#82b366;resizeWidth=1;fontSize=18;align=left;spacing=20;" vertex="1" parent="1">
          <mxGeometry x="-680" y="-354" width="940.0000000000001" height="50" as="geometry" />
        </mxCell>
        <mxCell id="spsE7N1KxRnAXjpoYgU2-167" value="" style="pointerEvents=1;verticalLabelPosition=bottom;shadow=0;dashed=0;align=center;html=1;verticalAlign=top;shape=mxgraph.electrical.electro-mechanical.manual_switch;strokeWidth=1;fontFamily=Tahoma;fontSize=12;fontStyle=1;fillColor=none;" vertex="1" parent="1">
          <mxGeometry x="-520" y="-241" width="35" height="20.5" as="geometry" />
        </mxCell>
        <mxCell id="spsE7N1KxRnAXjpoYgU2-187" value="&lt;b&gt;&lt;span style=&quot;font-size: 12px&quot;&gt;q&lt;/span&gt;&lt;/b&gt;&lt;sub&gt;sp&lt;/sub&gt;" style="text;html=1;strokeColor=none;fillColor=none;align=center;verticalAlign=middle;whiteSpace=wrap;rounded=0;fontFamily=Tahoma;fontSize=12;opacity=50;" vertex="1" parent="1">
          <mxGeometry x="-210" y="-124" width="40" height="20" as="geometry" />
        </mxCell>
        <mxCell id="spsE7N1KxRnAXjpoYgU2-188" value="&lt;b&gt;V&lt;/b&gt;&lt;sub&gt;sp&lt;/sub&gt;" style="text;html=1;strokeColor=none;fillColor=none;align=center;verticalAlign=middle;whiteSpace=wrap;rounded=0;fontFamily=Tahoma;fontSize=12;opacity=50;" vertex="1" parent="1">
          <mxGeometry x="-525" y="-220.5" width="40" height="20" as="geometry" />
        </mxCell>
        <mxCell id="spsE7N1KxRnAXjpoYgU2-189" value="&lt;b&gt;A&lt;/b&gt;&lt;sub&gt;sp&lt;/sub&gt;" style="text;html=1;strokeColor=none;fillColor=none;align=center;verticalAlign=middle;whiteSpace=wrap;rounded=0;fontFamily=Tahoma;fontSize=12;opacity=50;" vertex="1" parent="1">
          <mxGeometry x="-320" y="-200.5" width="40" height="20" as="geometry" />
        </mxCell>
        <mxCell id="spsE7N1KxRnAXjpoYgU2-196" value="&lt;font style=&quot;font-size: 14px&quot;&gt;&lt;span style=&quot;color: rgb(17 , 17 , 17) ; font-family: monospace&quot;&gt;Ω&lt;/span&gt;&lt;sub&gt;sp&lt;/sub&gt;&lt;/font&gt;" style="text;html=1;strokeColor=none;fillColor=none;align=center;verticalAlign=middle;whiteSpace=wrap;rounded=0;fontFamily=Tahoma;fontSize=12;opacity=50;" vertex="1" parent="1">
          <mxGeometry x="-10" y="-124" width="40" height="20" as="geometry" />
        </mxCell>
        <mxCell id="spsE7N1KxRnAXjpoYgU2-197" value="&lt;font style=&quot;font-size: 14px&quot;&gt;&lt;span style=&quot;color: rgb(17 , 17 , 17) ; font-family: , &amp;#34;blinkmacsystemfont&amp;#34; , &amp;#34;segoe ui&amp;#34; , &amp;#34;roboto&amp;#34; , , &amp;#34;ubuntu&amp;#34; , &amp;#34;cantarell&amp;#34; , &amp;#34;helvetica neue&amp;#34; , sans-serif&quot;&gt;δ&lt;/span&gt;&lt;sub&gt;Tsp&lt;/sub&gt;&lt;/font&gt;" style="text;html=1;strokeColor=none;fillColor=none;align=center;verticalAlign=middle;whiteSpace=wrap;rounded=0;fontFamily=Tahoma;fontSize=12;opacity=50;" vertex="1" parent="1">
          <mxGeometry x="170" y="-220.5" width="40" height="20" as="geometry" />
        </mxCell>
        <mxCell id="spsE7N1KxRnAXjpoYgU2-198" value="&lt;font style=&quot;font-size: 14px&quot;&gt;&lt;span style=&quot;color: rgb(17 , 17 , 17) ; font-family: , &amp;#34;blinkmacsystemfont&amp;#34; , &amp;#34;segoe ui&amp;#34; , &amp;#34;roboto&amp;#34; , , &amp;#34;ubuntu&amp;#34; , &amp;#34;cantarell&amp;#34; , &amp;#34;helvetica neue&amp;#34; , sans-serif&quot;&gt;δ&lt;/span&gt;&lt;sub&gt;Asp&lt;/sub&gt;&lt;/font&gt;" style="text;html=1;strokeColor=none;fillColor=none;align=center;verticalAlign=middle;whiteSpace=wrap;rounded=0;fontFamily=Tahoma;fontSize=12;opacity=50;" vertex="1" parent="1">
          <mxGeometry x="170" y="-187.5" width="40" height="20" as="geometry" />
        </mxCell>
        <mxCell id="spsE7N1KxRnAXjpoYgU2-199" value="&lt;font style=&quot;font-size: 14px&quot;&gt;&lt;span style=&quot;color: rgb(17 , 17 , 17) ; font-family: , &amp;#34;blinkmacsystemfont&amp;#34; , &amp;#34;segoe ui&amp;#34; , &amp;#34;roboto&amp;#34; , , &amp;#34;ubuntu&amp;#34; , &amp;#34;cantarell&amp;#34; , &amp;#34;helvetica neue&amp;#34; , sans-serif&quot;&gt;δ&lt;/span&gt;&lt;sub&gt;Esp&lt;/sub&gt;&lt;/font&gt;" style="text;html=1;strokeColor=none;fillColor=none;align=center;verticalAlign=middle;whiteSpace=wrap;rounded=0;fontFamily=Tahoma;fontSize=12;opacity=50;" vertex="1" parent="1">
          <mxGeometry x="170" y="-167.5" width="40" height="20" as="geometry" />
        </mxCell>
        <mxCell id="spsE7N1KxRnAXjpoYgU2-200" value="&lt;font style=&quot;font-size: 14px&quot;&gt;&lt;span style=&quot;color: rgb(17 , 17 , 17) ; font-family: , &amp;#34;blinkmacsystemfont&amp;#34; , &amp;#34;segoe ui&amp;#34; , &amp;#34;roboto&amp;#34; , , &amp;#34;ubuntu&amp;#34; , &amp;#34;cantarell&amp;#34; , &amp;#34;helvetica neue&amp;#34; , sans-serif&quot;&gt;δ&lt;/span&gt;&lt;sub&gt;Rsp&lt;/sub&gt;&lt;/font&gt;" style="text;html=1;strokeColor=none;fillColor=none;align=center;verticalAlign=middle;whiteSpace=wrap;rounded=0;fontFamily=Tahoma;fontSize=12;opacity=50;" vertex="1" parent="1">
          <mxGeometry x="170" y="-150" width="40" height="20" as="geometry" />
        </mxCell>
        <mxCell id="spsE7N1KxRnAXjpoYgU2-207" value="" style="pointerEvents=1;verticalLabelPosition=bottom;shadow=0;dashed=0;align=center;html=1;verticalAlign=top;shape=mxgraph.electrical.electro-mechanical.manual_switch;strokeWidth=1;fontFamily=Tahoma;fontSize=12;fontStyle=1;fillColor=none;" vertex="1" parent="1">
          <mxGeometry x="-100" y="-241" width="35" height="20.5" as="geometry" />
        </mxCell>
      </root>
    </mxGraphModel>
  </diagram>
</mxfile>
